<svg xmlns="http://www.w3.org/2000/svg" viewBox="0 0 512 512" id="email">
  <path d="M488.215,190.083,299.246,33.945a68.054,68.054,0,0,0-86.582,0L23.77,190.083A7.876,7.876,0,0,0,21,196.251V445.627C21,472.094,42.292,494,68.76,494H443.24c26.468,0,47.76-21.906,47.76-48.373V196.251A7.889,7.889,0,0,0,488.215,190.083Zm-17.9,272.389-120.776-97.41L475,218.378V445.627A31.719,31.719,0,0,1,470.312,462.472ZM222.884,46.281a52.073,52.073,0,0,1,66.232,0l182.99,151.15L337.259,355.01,286.1,313.726a47.966,47.966,0,0,0-61.454.006l-48.92,39.684L39.879,197.443ZM41.591,462.32A31.712,31.712,0,0,1,37,445.627v-227.4L163.468,363.5ZM68.76,478a31.938,31.938,0,0,1-15.681-4.308L234.764,326.218c.03-.024.06-.1.09-.121a31.979,31.979,0,0,1,41.04-.023c.035.029.07.047.106.076L458.749,473.8A31.937,31.937,0,0,1,443.24,478Z"></path>
  <path d="M349.632,163.945a60.788,60.788,0,0,1-17.666,44.068,8,8,0,1,0,11.313,11.313,76.661,76.661,0,0,0,22.352-55.552,79.008,79.008,0,0,0-23.123-55.381,8,8,0,0,0-11.315,11.313A63.094,63.094,0,0,1,349.632,163.945Z"></path>
  <path d="M319.384 164.73a35.736 35.736 0 0 1-10.594 25.478 8 8 0 1 0 11.272 11.354 51.624 51.624 0 0 0 15.322-36.8 54.132 54.132 0 0 0-16.074-38.583A8 8 0 0 0 308 137.491 38.236 38.236 0 0 1 319.384 164.73zM169.962 219.326a8 8 0 1 0 11.314-11.313 63.093 63.093 0 0 1-18.438-44.239A60.791 60.791 0 0 1 180.5 119.706a8 8 0 1 0-11.315-11.313 76.664 76.664 0 0 0-22.349 55.552A79 79 0 0 0 169.962 219.326z"></path>
  <path d="M193.159 201.542a8 8 0 0 0 11.315-11.314 38.23 38.23 0 0 1-11.389-27.24 35.729 35.729 0 0 1 10.594-25.477 8 8 0 1 0-11.272-11.354 51.619 51.619 0 0 0-15.322 36.8A54.135 54.135 0 0 0 193.159 201.542zM222.206 288h68.057a8 8 0 0 0 0-16H264V196.03a32.651 32.651 0 0 0 25.088-32.171 33.22 33.22 0 0 0-66.44 0c0 15.636 11.352 28.773 25.352 32.279V272H222.206a8 8 0 0 0 0 16zM238.8 163.859A17.205 17.205 0 1 1 256 181.064 17.225 17.225 0 0 1 238.8 163.859z"></path>
</svg>